<?xml version="1.0" encoding="utf-8"?>
<!-- Generator: Adobe Illustrator 17.0.0, SVG Export Plug-In . SVG Version: 6.00 Build 0)  -->
<!DOCTYPE svg PUBLIC "-//W3C//DTD SVG 1.1//EN" "http://www.w3.org/Graphics/SVG/1.1/DTD/svg11.dtd">
<svg version="1.1" xmlns="http://www.w3.org/2000/svg" xmlns:xlink="http://www.w3.org/1999/xlink" x="0px" y="0px" width="612px"
	 height="792px" viewBox="0 0 612 792" enable-background="new 0 0 612 792" xml:space="preserve">
<g id="Layer_1">
	<g>
		<circle fill="#000000" stroke="#000000" stroke-miterlimit="10" cx="98.859" cy="144.016" r="10.613"/>
		<circle fill="#000000" stroke="#000000" stroke-miterlimit="10" cx="324.738" cy="352.357" r="13.846"/>
		<circle fill="#000000" stroke="#000000" stroke-miterlimit="10" cx="489.964" cy="147.25" r="13.846"/>
		<circle fill="#000000" stroke="#000000" stroke-miterlimit="10" cx="484.765" cy="378.602" r="19.045"/>
		<circle fill="#000000" stroke="#000000" stroke-miterlimit="10" cx="120.145" cy="488.788" r="13.846"/>
		<circle fill="#000000" stroke="#000000" stroke-miterlimit="10" cx="167.788" cy="299.998" r="21.147"/>
		<circle fill="#000000" stroke="#000000" stroke-miterlimit="10" cx="391.885" cy="233.814" r="11.807"/>
		
			<line fill="#000000" stroke="#000000" stroke-width="3" stroke-miterlimit="10" x1="98.859" y1="144.016" x2="167.788" y2="299.998"/>
		
			<line fill="#000000" stroke="#000000" stroke-width="3" stroke-miterlimit="10" x1="167.788" y1="299.998" x2="120.145" y2="488.788"/>
		
			<line fill="#000000" stroke="#000000" stroke-width="3" stroke-miterlimit="10" x1="98.859" y1="144.016" x2="324.738" y2="352.357"/>
		
			<line fill="#000000" stroke="#000000" stroke-width="3" stroke-miterlimit="10" x1="98.859" y1="144.016" x2="120.145" y2="488.788"/>
		<circle fill="#000000" stroke="#000000" stroke-width="3" stroke-miterlimit="10" cx="392.962" cy="315.377" r="5.767"/>
		
			<line fill="#000000" stroke="#000000" stroke-width="3" stroke-miterlimit="10" x1="484.765" y1="378.602" x2="392.962" y2="315.377"/>
		
			<line fill="#000000" stroke="#000000" stroke-width="3" stroke-miterlimit="10" x1="324.738" y1="352.357" x2="392.962" y2="315.377"/>
		
			<line fill="#000000" stroke="#000000" stroke-width="3" stroke-miterlimit="10" x1="489.964" y1="147.25" x2="484.765" y2="378.602"/>
		<circle fill="#000000" stroke="#000000" stroke-miterlimit="10" cx="194.192" cy="411.494" r="13.846"/>
		
			<line fill="#000000" stroke="#000000" stroke-width="3" stroke-miterlimit="10" x1="167.788" y1="299.998" x2="194.192" y2="411.494"/>
		
			<line fill="#000000" stroke="#000000" stroke-width="3" stroke-miterlimit="10" x1="194.192" y1="411.494" x2="120.145" y2="488.788"/>
		
			<line fill="#000000" stroke="#000000" stroke-width="3" stroke-miterlimit="10" x1="391.885" y1="233.814" x2="489.964" y2="147.25"/>
		
			<line fill="#000000" stroke="#000000" stroke-width="3" stroke-miterlimit="10" x1="391.885" y1="233.814" x2="324.738" y2="352.357"/>
		
			<line fill="#000000" stroke="#000000" stroke-width="3" stroke-miterlimit="10" x1="167.788" y1="299.998" x2="391.885" y2="233.814"/>
		
			<line fill="#000000" stroke="#000000" stroke-width="3" stroke-miterlimit="10" x1="484.765" y1="378.602" x2="391.885" y2="233.814"/>
		<circle fill="#000000" stroke="#000000" stroke-miterlimit="10" cx="470.919" cy="474.942" r="13.846"/>
		
			<line fill="#000000" stroke="#000000" stroke-width="3" stroke-miterlimit="10" x1="470.919" y1="474.942" x2="484.765" y2="378.602"/>
		
			<line fill="#000000" stroke="#000000" stroke-width="3" stroke-miterlimit="10" x1="470.919" y1="474.942" x2="392.962" y2="315.377"/>
		<circle fill="#000000" stroke="#000000" stroke-width="3" stroke-miterlimit="10" cx="232.977" cy="184.764" r="5.767"/>
		
			<line fill="#000000" stroke="#000000" stroke-width="3" stroke-miterlimit="10" x1="324.738" y1="352.357" x2="232.977" y2="184.764"/>
		
			<line fill="#000000" stroke="#000000" stroke-width="3" stroke-miterlimit="10" x1="167.788" y1="293.086" x2="232.977" y2="184.764"/>
		
			<line fill="#000000" stroke="#000000" stroke-width="3" stroke-miterlimit="10" x1="98.859" y1="144.016" x2="72.038" y2="76.993"/>
		
			<line fill="#000000" stroke="#000000" stroke-width="3" stroke-miterlimit="10" x1="72.038" y1="76.993" x2="232.977" y2="184.764"/>
		
			<line fill="#000000" stroke="#000000" stroke-width="3" stroke-miterlimit="10" x1="120.145" y1="488.788" x2="72.038" y2="542.227"/>
		
			<line fill="#000000" stroke="#000000" stroke-width="3" stroke-miterlimit="10" x1="120.145" y1="488.788" x2="232.038" y2="508.64"/>
		
			<line fill="#000000" stroke="#000000" stroke-width="3" stroke-miterlimit="10" x1="194.192" y1="411.494" x2="232.038" y2="508.64"/>
		
			<line fill="#000000" stroke="#000000" stroke-width="3" stroke-miterlimit="10" x1="194.192" y1="411.494" x2="232.038" y2="372.744"/>
		
			<line fill="#000000" stroke="#000000" stroke-width="3" stroke-miterlimit="10" x1="232.038" y1="372.744" x2="167.788" y2="299.998"/>
		
			<line fill="#000000" stroke="#000000" stroke-width="3" stroke-miterlimit="10" x1="324.738" y1="352.357" x2="377.038" y2="372.744"/>
		
			<line fill="#000000" stroke="#000000" stroke-width="3" stroke-miterlimit="10" x1="391.885" y1="233.814" x2="305.5" y2="226.051"/>
		
			<line fill="#000000" stroke="#000000" stroke-width="3" stroke-miterlimit="10" x1="391.885" y1="233.814" x2="376.743" y2="110.58"/>
		
			<line fill="#000000" stroke="#000000" stroke-width="3" stroke-miterlimit="10" x1="489.964" y1="147.25" x2="538.038" y2="76.993"/>
		
			<line fill="#000000" stroke="#000000" stroke-width="3" stroke-miterlimit="10" x1="484.765" y1="378.602" x2="538.038" y2="542.227"/>
		
			<line fill="#000000" stroke="#000000" stroke-width="3" stroke-miterlimit="10" x1="470.919" y1="474.942" x2="538.038" y2="542.227"/>
		
			<line fill="#000000" stroke="#000000" stroke-width="3" stroke-miterlimit="10" x1="470.919" y1="474.942" x2="377.038" y2="508.64"/>
		
			<line fill="#000000" stroke="#000000" stroke-width="3" stroke-miterlimit="10" x1="377.038" y1="372.744" x2="484.765" y2="378.602"/>
		
			<line fill="#000000" stroke="#000000" stroke-width="3" stroke-miterlimit="10" x1="484.765" y1="378.602" x2="377.038" y2="508.64"/>
		
			<line fill="#000000" stroke="#000000" stroke-width="3" stroke-miterlimit="10" x1="324.738" y1="352.357" x2="304.538" y2="450.122"/>
		
			<line fill="#000000" stroke="#000000" stroke-width="3" stroke-miterlimit="10" x1="232.038" y1="372.744" x2="324.738" y2="352.357"/>
		
			<line fill="#000000" stroke="#000000" stroke-width="3" stroke-miterlimit="10" x1="232.977" y1="184.764" x2="233.955" y2="110.58"/>
		
			<line fill="#000000" stroke="#000000" stroke-width="3" stroke-miterlimit="10" x1="489.964" y1="147.25" x2="376.743" y2="110.58"/>
		<path fill="none" stroke="#000000" stroke-width="15" stroke-miterlimit="10" d="M377.206,110.58
			c-23.801,40.272-47.359,78.114-71.243,115.471c-23.879-37.357-47.744-75.199-71.545-115.471
			C179.678,105.373,125.5,94.176,72.5,76.993c0,155.082,0,310.153,0,465.234c53-17.186,106-28.38,160-33.587
			c0-45.299,0-90.597,0-135.896c28,25.883,48.621,51.223,72.5,77.378c23.879-26.155,45.5-51.495,72.5-77.378
			c0,45.299,0,90.597,0,135.896c54,5.207,108,16.401,161,33.587c0-155.081,0-310.152,0-465.234
			C485.5,94.176,431.945,105.373,377.206,110.58z"/>
	</g>
</g>
<g id="Layer_3">
	<g>
		<path fill="#000000" d="M97.823,680.46v-32.402h-9.818v32.402H65.541v-83.49h22.463v31.577h9.818V596.97h22.349v83.49H97.823z"/>
		<path fill="#000000" d="M211.238,680.46v-18.21h-8.867v18.21h-21.999v-70.128c0-3.423,0.12-8.512,3.078-11.114
			c3.428-3.078,10.168-2.247,10.524-2.247h25.191c0.825-0.12,1.651-0.12,2.482-0.12c1.301,0,7.331-0.115,9.933,4.854
			c1.536,2.952,1.421,6.386,1.421,9.338v69.418H211.238z M211.238,621.571c0-1.892-0.115-3.668-1.771-5.084
			c-0.946-0.831-2.247-0.831-2.722-0.831c-4.729,0-4.373,5.445-4.373,6.036v22.703h8.867V621.571z"/>
		<path fill="#000000" d="M306.449,680.46c-0.476,0-3.313-0.12-5.325-0.705c-3.663-1.186-6.741-4.258-7.686-8.162
			c-0.591-1.892-0.591-4.614-0.591-5.084v-56.292c0-0.235,0-2.957,0.47-4.608c0.945-4.144,4.144-7.336,8.397-8.282
			c1.421-0.356,2.132-0.356,4.734-0.356h21.758v19.987h-9.108c-3.078,0.591-3.428,1.066-3.663,4.144v35.359
			c0.355,3.072,0.826,3.542,4.018,3.898h8.753v20.101H306.449z"/>
		<path fill="#000000" d="M420.809,680.46c-1.536-2.602-2.012-4.018-2.127-9.338V656.22c-0.476-6.976-2.722-8.042-9.343-8.042
			v32.282h-22.119v-83.49h22.119l0.115,31.342c2.132,0,5.445,0.235,7.336-1.307c2.241-1.886,1.892-5.194,1.892-5.789v-15.728
			c0.35-4.855,0.946-6.385,2.127-8.517h22.469c-1.892,3.783-2.247,7.687-2.247,15.963c0,2.367,0.12,4.614,0.12,6.981
			c0.115,1.897,0.115,3.788,0.115,5.68c-0.235,5.434-1.771,8.391-3.548,10.048c-2.012,2.012-5.319,3.313-11.229,4.139
			c4.724,0.826,11.47,2.127,13.476,7.452c1.542,4.023,0.71,8.632,0.71,17.264c0,8.397,1.066,12.18,2.722,15.963H420.809z"/>
		<path fill="#000000" d="M501.347,661.545h21.643v-12.18h-7.566c0,0-7.096,0.591-10.529-1.782
			c-3.548-2.597-3.548-8.277-3.548-11.94v-24.836c0-0.355,0-3.898,0.596-6.15c2.361-8.747,11.355-7.806,13.361-7.687h30.155v18.565
			h-21.402v12.776h7.686c0.945,0,5.675-0.591,9.343,1.771c4.024,2.602,4.374,7.571,4.374,11.825v24.601
			c-0.115,2.012-0.235,4.024-0.826,6.03c-2.722,7.921-10.879,7.801-13.011,7.921h-30.275V661.545z"/>
	</g>
</g>
</svg>
